<svg width="128" height="128" viewBox="0 0 128 128" fill="none" xmlns="http://www.w3.org/2000/svg">
<g clip-path="url(#clip0_1_3)">
<path d="M102 0H26C11.6406 0 0 11.6406 0 26V102C0 116.359 11.6406 128 26 128H102C116.359 128 128 116.359 128 102V26C128 11.6406 116.359 0 102 0Z" fill="url(#paint0_linear_1_3)"/>
<g opacity="0.18">
<path d="M102 32C107.523 32 112 27.5228 112 22C112 16.4772 107.523 12 102 12C96.4772 12 92 16.4772 92 22C92 27.5228 96.4772 32 102 32Z" fill="white"/>
<path d="M22 118C29.732 118 36 111.732 36 104C36 96.268 29.732 90 22 90C14.268 90 8 96.268 8 104C8 111.732 14.268 118 22 118Z" fill="white"/>
</g>
<path d="M73 34C62.6566 34 52.7368 38.1089 45.4228 45.4228C38.1089 52.7368 34 62.6566 34 73V21" stroke="white" stroke-width="6" stroke-linecap="round" stroke-linejoin="round"/>
<path d="M86 47C93.1797 47 99 41.1797 99 34C99 26.8203 93.1797 21 86 21C78.8203 21 73 26.8203 73 34C73 41.1797 78.8203 47 86 47Z" stroke="white" stroke-width="6" stroke-linecap="round" stroke-linejoin="round"/>
<path d="M34 99C41.1797 99 47 93.1797 47 86C47 78.8203 41.1797 73 34 73C26.8203 73 21 78.8203 21 86C21 93.1797 26.8203 99 34 99Z" stroke="white" stroke-width="6" stroke-linecap="round" stroke-linejoin="round"/>
<path d="M85.2685 60C87.273 60.0001 89.1957 60.7965 90.6132 62.2139C92.0307 63.6314 92.827 65.5548 92.8271 67.5596V80.207C92.8271 80.2148 92.8304 80.223 92.8358 80.2285C92.8414 80.234 92.8495 80.2373 92.8573 80.2373H100.446C102.451 80.2374 104.373 81.0337 105.791 82.4512C107.208 83.8687 108.005 85.7913 108.005 87.7959V90.3262C108.005 91.6597 107.475 92.9387 106.532 93.8818C106.368 94.0458 106.192 94.1956 106.01 94.334L110.366 109.273L110.397 109.391C110.574 110.13 110.581 110.9 110.418 111.643C110.255 112.385 109.925 113.082 109.454 113.679C108.983 114.275 108.383 114.757 107.699 115.089C107.015 115.42 106.265 115.592 105.505 115.592V115.593H65.0312V115.592C64.2712 115.592 63.5208 115.42 62.8368 115.089C62.1527 114.757 61.5519 114.275 61.081 113.679C60.61 113.082 60.2804 112.385 60.1171 111.643C59.9539 110.9 59.9615 110.13 60.1386 109.391C60.148 109.351 60.1585 109.312 60.1698 109.273L64.5243 94.334C64.3419 94.1958 64.1674 94.0454 64.0038 93.8818C63.061 92.9387 62.5313 91.6597 62.5312 90.3262V87.7959C62.5313 85.7913 63.3276 83.8687 64.745 82.4512C66.1626 81.0336 68.086 80.2373 70.0907 80.2373H77.6796C77.6872 80.2372 77.6947 80.2339 77.7001 80.2285C77.7056 80.223 77.7089 80.2148 77.7089 80.207V67.5596C77.709 65.5548 78.5052 63.6314 79.9228 62.2139C81.3404 60.7963 83.2637 60 85.2685 60ZM65.0009 110.565C65.001 110.567 65.0007 110.568 65.0009 110.569C65.0018 110.574 65.0041 110.578 65.0067 110.581C65.0094 110.584 65.0127 110.588 65.0165 110.59C65.0203 110.592 65.025 110.593 65.0292 110.593H73.1972L75.2538 102.368C75.5887 101.029 76.9458 100.214 78.2851 100.549C79.6245 100.884 80.4393 102.242 80.1044 103.581L78.3515 110.593H92.1854L90.4315 103.581C90.0967 102.242 90.9114 100.884 92.2509 100.549C93.5903 100.214 94.9483 101.029 95.2831 102.368L97.3388 110.593H105.506C105.51 110.593 105.515 110.592 105.519 110.59C105.523 110.588 105.526 110.584 105.529 110.581C105.532 110.578 105.534 110.574 105.535 110.569C105.535 110.568 105.535 110.567 105.535 110.565L101.1 95.3555H69.4364L65.0009 110.565ZM85.2685 65C84.5898 65 83.9388 65.2702 83.4589 65.75C82.979 66.2299 82.709 66.8809 82.7089 67.5596V80.207C82.7089 81.5409 82.1784 82.8205 81.2353 83.7637C80.2921 84.7067 79.0133 85.2372 77.6796 85.2373H70.0907C69.4122 85.2373 68.7611 85.5067 68.2812 85.9863C67.8013 86.4661 67.5313 87.1173 67.5312 87.7959V90.3262C67.5313 90.3338 67.5345 90.3412 67.5399 90.3467C67.5454 90.3521 67.5527 90.3554 67.5604 90.3555H102.975C102.983 90.3554 102.99 90.3521 102.996 90.3467C103.001 90.3412 103.005 90.3338 103.005 90.3262V87.7959C103.005 87.1174 102.736 86.4661 102.256 85.9863C101.776 85.5066 101.125 85.2374 100.446 85.2373H92.8573C91.5234 85.2373 90.2439 84.7069 89.3007 83.7637C88.3575 82.8204 87.8271 81.5409 87.8271 80.207V67.5596C87.827 66.8811 87.5577 66.2299 87.078 65.75C86.5982 65.2702 85.947 65.0001 85.2685 65Z" fill="white"/>
</g>
<defs>
<linearGradient id="paint0_linear_1_3" x1="8" y1="8" x2="120" y2="120" gradientUnits="userSpaceOnUse">
<stop stop-color="#0F766E"/>
<stop offset="1" stop-color="#1D4ED8"/>
</linearGradient>
<clipPath id="clip0_1_3">
<rect width="128" height="128" fill="white"/>
</clipPath>
</defs>
</svg>
